<svg aria-hidden="true" style="position: absolute; width: 0; height: 0; overflow: hidden;" version="1.1" xmlns="http://www.w3.org/2000/svg" xmlns:xlink="http://www.w3.org/1999/xlink">
<defs>
<symbol id="icon-korona" viewBox="0 0 49 32">
<path d="M24.615 9.091l-23.737 14.72-0.878 0.029 7.539-23.84 5.105 0.707-4.425 13.282 16.095-9.545h0.602l5.005 2.968-1.755 3.796-3.55-2.117zM24.775 32l-0.53-0.001-8.027-16.372 4.311-2.565 4.039 8.571 4.783-9.712-0.003-0.002 1.802-3.78 9.862 5.848-4.425-13.282 5.105-0.707 7.539 23.84-0.878-0.029-14.782-9.249-8.796 17.438z"></path>
</symbol>
<symbol id="icon-logo" viewBox="0 0 52 32">
<path d="M26.217 9.928l9.295-5.888 0.344-0.012-2.952 9.536-1.999-0.283 1.733-5.313-6.302 3.818h-0.236l-1.96-1.187 0.687-1.518 1.39 0.847z"></path>
<path d="M26.154 0.765l0.207 0 3.143 6.549-1.688 1.026-1.581-3.428-1.873 3.885 0.001 0.001-0.706 1.512-3.862-2.339 1.733 5.313-1.999 0.283-2.952-9.536 0.344 0.012 5.788 3.699 3.444-6.975z"></path>
<path d="M7.911 19.825l3.678-4.764h3.012v9.925h-2.818v-6.338l-3.872 4.849h-0.139l-3.872-4.849v6.338h-2.734v-9.925h3.095l3.65 4.764z"></path>
<path d="M19.128 15.061v9.925h-2.831v-9.925h2.831z"></path>
<path d="M29.781 24.986h3.012l-5.024-9.925h-3.095l-5.024 9.925h2.97l0.916-1.9h5.33l0.916 1.9zM24.506 21.030l1.693-3.516 1.679 3.516h-3.373z"></path>
<path d="M40.035 19.825l3.678-4.764h3.012v9.925h-2.818v-6.338l-3.872 4.849h-0.139l-3.873-4.849v6.338h-2.734v-9.925h3.095l3.65 4.764z"></path>
<path d="M51.252 24.986v-9.925h-2.831v9.925h2.831z"></path>
<path d="M1.559 28.708c0 0.988 0.672 1.5 1.689 1.5 0.611 0 1.118-0.205 1.388-0.686l0.401 0.205c-0.331 0.538-0.942 0.881-1.799 0.881-1.308 0-2.11-0.737-2.11-1.899s0.802-1.899 2.125-1.899c0.842 0 1.454 0.348 1.784 0.881l-0.401 0.205c-0.276-0.476-0.777-0.686-1.388-0.686-1.017 0-1.689 0.512-1.689 1.5z"></path>
<path d="M10.348 28.708c0 1.167-0.802 1.899-2.135 1.899s-2.135-0.732-2.135-1.899c0-1.167 0.802-1.899 2.135-1.899s2.135 0.732 2.135 1.899zM6.509 28.708c0 0.963 0.672 1.5 1.704 1.5s1.704-0.538 1.704-1.5c0-0.963-0.672-1.5-1.704-1.5s-1.704 0.538-1.704 1.5z"></path>
<path d="M15.11 26.916v2.954l-2.862-2.954h-0.456v3.584h0.411v-3.036l2.947 3.036h0.371v-3.584h-0.411z"></path>
<path d="M17.222 26.916h1.704c1.283 0 2.105 0.691 2.105 1.792s-0.822 1.792-2.105 1.792h-1.704v-3.584zM17.643 30.101h1.253c0.997 0 1.704-0.476 1.704-1.393s-0.707-1.393-1.704-1.393h-1.253v2.785z"></path>
<path d="M24.35 30.607c1.333 0 2.135-0.732 2.135-1.899s-0.802-1.899-2.135-1.899-2.135 0.732-2.135 1.899c0 1.167 0.802 1.899 2.135 1.899zM24.35 30.208c-1.033 0-1.704-0.538-1.704-1.5s0.672-1.5 1.704-1.5c1.032 0 1.704 0.538 1.704 1.5s-0.672 1.5-1.704 1.5z"></path>
<path d="M32.004 28.324l1.859 2.176h-0.536l-1.664-1.925-1.168 0.932v0.993h-0.421v-3.584h0.421v2.099l2.656-2.099h0.601l-1.749 1.408z"></path>
<path d="M35.45 26.916h-0.421v3.584h0.421v-3.584z"></path>
<path d="M40.472 29.87v-2.954h0.411v3.584h-0.371l-2.947-3.036v3.036h-0.411v-3.584h0.456l2.862 2.954z"></path>
<path d="M46.448 28.636h-2.015v0.399h1.594v0.466c-0.261 0.497-0.832 0.707-1.529 0.707-1.073 0-1.744-0.507-1.744-1.5s0.667-1.5 1.714-1.5c0.637 0 1.103 0.205 1.418 0.609l0.366-0.261c-0.351-0.42-0.927-0.748-1.784-0.748-1.343 0-2.145 0.732-2.145 1.899s0.802 1.899 2.16 1.899c0.972 0 1.674-0.42 1.965-0.978v-0.993z"></path>
<path d="M48.087 27.853c0 0.445 0.662 0.538 1.489 0.604 1.068 0.087 1.809 0.297 1.809 1.004 0 0.66-0.657 1.147-1.799 1.147-0.767 0-1.504-0.246-2.050-0.737l0.296-0.323c0.511 0.461 1.078 0.66 1.779 0.66 0.847 0 1.343-0.271 1.343-0.717 0-0.435-0.516-0.543-1.464-0.625-0.937-0.082-1.834-0.292-1.834-0.998 0-0.676 0.832-1.060 1.769-1.060 0.762 0 1.388 0.271 1.794 0.64l-0.331 0.287c-0.341-0.343-0.857-0.522-1.443-0.527-0.627-0.005-1.358 0.174-1.358 0.645z"></path>
</symbol>
<symbol id="icon-phone" viewBox="0 0 32 32">
<path d="M26.68 20.507c-1.64 0-3.227-0.267-4.707-0.747-0.467-0.16-0.987-0.040-1.347 0.32l-2.093 2.627c-3.773-1.8-7.307-5.2-9.187-9.107l2.6-2.213c0.36-0.373 0.467-0.893 0.32-1.36-0.493-1.48-0.747-3.067-0.747-4.707 0-0.72-0.6-1.32-1.32-1.32h-4.613c-0.72 0-1.587 0.32-1.587 1.32 0 12.387 10.307 22.68 22.68 22.68 0.947 0 1.32-0.84 1.32-1.573v-4.6c0-0.72-0.6-1.32-1.32-1.32z"></path>
</symbol>
</defs>
</svg>
